<?xml version="1.0" encoding="UTF-8"?>
<svg width="818px" height="818px" viewBox="0 0 818 818" version="1.1" xmlns="http://www.w3.org/2000/svg" xmlns:xlink="http://www.w3.org/1999/xlink">
    <!-- Generator: Sketch 52.5 (67469) - http://www.bohemiancoding.com/sketch -->
    <title>Artboard Copy 4</title>
    <desc>Created with Sketch.</desc>
    <defs>
        <circle id="path-1" cx="369.5" cy="369.5" r="369.5"></circle>
        <filter x="-3.5%" y="-3.2%" width="108.7%" height="108.7%" filterUnits="objectBoundingBox" id="filter-2">
            <feMorphology radius="4" operator="dilate" in="SourceAlpha" result="shadowSpreadOuter1"></feMorphology>
            <feOffset dx="6" dy="8" in="shadowSpreadOuter1" result="shadowOffsetOuter1"></feOffset>
            <feGaussianBlur stdDeviation="8" in="shadowOffsetOuter1" result="shadowBlurOuter1"></feGaussianBlur>
            <feComposite in="shadowBlurOuter1" in2="SourceAlpha" operator="out" result="shadowBlurOuter1"></feComposite>
            <feColorMatrix values="0 0 0 0 0   0 0 0 0 0   0 0 0 0 0  0 0 0 0.18 0" type="matrix" in="shadowBlurOuter1"></feColorMatrix>
        </filter>
        <path d="M307,614 C137.448582,614 0,476.551418 0,307 C0,137.448582 137.448582,0 307,0 C476.551418,0 614,137.448582 614,307 C614,476.551418 476.551418,614 307,614 Z M305.502439,92.8487805 C281.31456,92.8487805 261.256319,112.574379 261.256319,137.010568 C261.256319,161.446757 281.31456,181.466767 305.502439,181.466767 C329.985292,181.466767 349.748559,161.446757 349.748559,137.010568 C349.748559,112.574379 329.985292,92.8487805 305.502439,92.8487805 Z M110.819512,232.988853 C110.819512,252.125627 242.967923,274.206521 242.967923,274.206521 C242.967923,274.206521 193.117295,513.857821 211.700665,520.923707 C229.989061,527.989593 305.502439,368.123923 305.502439,368.123923 C305.502439,368.123923 381.310791,527.989593 399.599187,520.923707 C418.182557,513.857821 368.331929,274.206521 368.331929,274.206521 C368.331929,274.206521 500.185366,252.125627 500.185366,232.988853 C500.185366,213.852078 305.502439,210.613547 305.502439,210.613547 C305.502439,210.613547 110.819512,213.852078 110.819512,232.988853 Z" id="path-3"></path>
        <filter x="-3.6%" y="-3.3%" width="109.1%" height="109.1%" filterUnits="objectBoundingBox" id="filter-4">
            <feOffset dx="6" dy="8" in="SourceAlpha" result="shadowOffsetOuter1"></feOffset>
            <feGaussianBlur stdDeviation="8" in="shadowOffsetOuter1" result="shadowBlurOuter1"></feGaussianBlur>
            <feColorMatrix values="0 0 0 0 0   0 0 0 0 0   0 0 0 0 0  0 0 0 0.08 0" type="matrix" in="shadowBlurOuter1"></feColorMatrix>
        </filter>
    </defs>
    <g id="Artboard-Copy-4" stroke="none" stroke-width="1" fill="none" fill-rule="evenodd">
        <g id="Group-2" transform="translate(40.000000, 40.000000)">
            <g id="Oval">
                <use fill="black" fill-opacity="1" filter="url(#filter-2)" xlink:href="#path-1"></use>
                <use stroke="#298361" stroke-width="8" fill="#FFFFFF" fill-rule="evenodd" xlink:href="#path-1"></use>
            </g>
            <path d="M277.52,703.08 L272.2,689.24 L267.04,703.08 L277.52,703.08 Z M270.88,686.04 L273.48,686.04 L283.88,713.04 L281.44,713.44 L278.24,705.08 L266.36,705.08 L263.36,713.24 L261,713.24 L270.88,686.04 Z M299.08,710.32 L299.88,712.12 C299.346664,712.440002 298.70667,712.726665 297.96,712.98 C297.21333,713.233335 296.46667,713.426666 295.72,713.56 C294.97333,713.693334 294.320003,713.76 293.76,713.76 C291.866657,713.76 290.240007,713.320004 288.88,712.44 C287.519993,711.559996 286.480004,710.340008 285.76,708.78 C285.039996,707.219992 284.68,705.44001 284.68,703.44 C284.706667,701.493324 285.099996,699.760008 285.86,698.24 C286.620004,696.719992 287.699993,695.520004 289.1,694.64 C290.500007,693.759996 292.146657,693.32 294.04,693.32 C294.573336,693.32 295.21333,693.393333 295.96,693.54 C296.70667,693.686667 297.45333,693.879999 298.2,694.12 C298.94667,694.360001 299.573331,694.653332 300.08,695 L299.28,696.76 C298.61333,696.439998 297.900004,696.133335 297.14,695.84 C296.379996,695.546665 295.306674,695.4 293.92,695.4 C292.50666,695.4 291.300005,695.75333 290.3,696.46 C289.299995,697.16667 288.540003,698.119994 288.02,699.32 C287.499997,700.520006 287.226667,701.879992 287.2,703.4 C287.2,704.973341 287.439998,706.38666 287.92,707.64 C288.400002,708.89334 289.126662,709.879996 290.1,710.6 C291.073338,711.320004 292.279993,711.68 293.72,711.68 C295.13334,711.68 296.206663,711.540001 296.94,711.26 C297.673337,710.979999 298.386663,710.666668 299.08,710.32 Z M316.12,710.32 L316.92,712.12 C316.386664,712.440002 315.74667,712.726665 315,712.98 C314.25333,713.233335 313.50667,713.426666 312.76,713.56 C312.01333,713.693334 311.360003,713.76 310.8,713.76 C308.906657,713.76 307.280007,713.320004 305.92,712.44 C304.559993,711.559996 303.520004,710.340008 302.8,708.78 C302.079996,707.219992 301.72,705.44001 301.72,703.44 C301.746667,701.493324 302.139996,699.760008 302.9,698.24 C303.660004,696.719992 304.739993,695.520004 306.14,694.64 C307.540007,693.759996 309.186657,693.32 311.08,693.32 C311.613336,693.32 312.25333,693.393333 313,693.54 C313.74667,693.686667 314.49333,693.879999 315.24,694.12 C315.98667,694.360001 316.613331,694.653332 317.12,695 L316.32,696.76 C315.65333,696.439998 314.940004,696.133335 314.18,695.84 C313.419996,695.546665 312.346674,695.4 310.96,695.4 C309.54666,695.4 308.340005,695.75333 307.34,696.46 C306.339995,697.16667 305.580003,698.119994 305.06,699.32 C304.539997,700.520006 304.266667,701.879992 304.24,703.4 C304.24,704.973341 304.479998,706.38666 304.96,707.64 C305.440002,708.89334 306.166662,709.879996 307.14,710.6 C308.113338,711.320004 309.319993,711.68 310.76,711.68 C312.17334,711.68 313.246663,711.540001 313.98,711.26 C314.713337,710.979999 315.426663,710.666668 316.12,710.32 Z M335.68,703.68 L321.28,703.68 C321.306667,705.226674 321.553331,706.606661 322.02,707.82 C322.486669,709.033339 323.246661,709.99333 324.3,710.7 C325.353339,711.40667 326.746658,711.76 328.48,711.76 C329.600006,711.76 330.646662,711.606668 331.62,711.3 C332.593338,710.993332 333.573328,710.586669 334.56,710.08 L335.4,711.92 C334.786664,712.240002 334.14667,712.539999 333.48,712.82 C332.81333,713.100001 332.086671,713.326666 331.3,713.5 C330.513329,713.673334 329.613338,713.76 328.6,713.76 C326.359989,713.76 324.513341,713.320004 323.06,712.44 C321.606659,711.559996 320.52667,710.340008 319.82,708.78 C319.11333,707.219992 318.76,705.44001 318.76,703.44 C318.786667,701.493324 319.13333,699.760008 319.8,698.24 C320.46667,696.719992 321.453327,695.520004 322.76,694.64 C324.066673,693.759996 325.666657,693.32 327.56,693.32 C329.453343,693.32 330.993327,693.759996 332.18,694.64 C333.366673,695.520004 334.246664,696.726659 334.82,698.26 C335.393336,699.793341 335.68,701.533324 335.68,703.48 L335.68,703.68 Z M321.36,701.96 L333.16,701.96 C333.053333,700.679994 332.793335,699.546672 332.38,698.56 C331.966665,697.573328 331.360004,696.800003 330.56,696.24 C329.759996,695.679997 328.720006,695.4 327.44,695.4 C326.159994,695.4 325.093338,695.679997 324.24,696.24 C323.386662,696.800003 322.726669,697.573328 322.26,698.56 C321.793331,699.546672 321.493334,700.679994 321.36,701.96 Z M337.72,712.24 L338.52,710.4 C339.000002,710.640001 339.519997,710.859999 340.08,711.06 C340.640003,711.260001 341.239997,711.426666 341.88,711.56 C342.520003,711.693334 343.17333,711.76 343.84,711.76 C344.906672,711.76 345.833329,711.640001 346.62,711.4 C347.406671,711.159999 348.019998,710.793336 348.46,710.3 C348.900002,709.806664 349.12,709.200004 349.12,708.48 C349.12,707.839997 348.873336,707.266669 348.38,706.76 C347.886664,706.253331 347.240004,705.800002 346.44,705.4 C345.639996,704.999998 344.773338,704.640002 343.84,704.32 C342.826662,703.973332 341.840005,703.560002 340.88,703.08 C339.919995,702.599998 339.12667,702.000004 338.5,701.28 C337.87333,700.559996 337.56,699.693338 337.56,698.68 C337.56,696.999992 338.199994,695.686671 339.48,694.74 C340.760006,693.793329 342.493322,693.32 344.68,693.32 C345.240003,693.32 345.886663,693.386666 346.62,693.52 C347.353337,693.653334 348.079996,693.839999 348.8,694.08 C349.520004,694.320001 350.093331,694.599998 350.52,694.92 L349.72,696.68 C349.186664,696.413332 348.500004,696.120002 347.66,695.8 C346.819996,695.479998 345.800006,695.32 344.6,695.32 C343.239993,695.32 342.120004,695.619997 341.24,696.22 C340.359996,696.820003 339.92,697.586662 339.92,698.52 C339.946667,699.426671 340.453328,700.166664 341.44,700.74 C342.426672,701.313336 343.599993,701.826664 344.96,702.28 C346.026672,702.653335 347.053328,703.113331 348.04,703.66 C349.026672,704.206669 349.839997,704.85333 350.48,705.6 C351.120003,706.34667 351.44,707.239995 351.44,708.28 C351.44,709.986675 350.780007,711.326662 349.46,712.3 C348.139993,713.273338 346.240012,713.76 343.76,713.76 C343.226664,713.76 342.580004,713.700001 341.82,713.58 C341.059996,713.459999 340.313337,713.286668 339.58,713.06 C338.846663,712.833332 338.226669,712.560002 337.72,712.24 Z M353.48,712.24 L354.28,710.4 C354.760002,710.640001 355.279997,710.859999 355.84,711.06 C356.400003,711.260001 356.999997,711.426666 357.64,711.56 C358.280003,711.693334 358.93333,711.76 359.6,711.76 C360.666672,711.76 361.593329,711.640001 362.38,711.4 C363.166671,711.159999 363.779998,710.793336 364.22,710.3 C364.660002,709.806664 364.88,709.200004 364.88,708.48 C364.88,707.839997 364.633336,707.266669 364.14,706.76 C363.646664,706.253331 363.000004,705.800002 362.2,705.4 C361.399996,704.999998 360.533338,704.640002 359.6,704.32 C358.586662,703.973332 357.600005,703.560002 356.64,703.08 C355.679995,702.599998 354.88667,702.000004 354.26,701.28 C353.63333,700.559996 353.32,699.693338 353.32,698.68 C353.32,696.999992 353.959994,695.686671 355.24,694.74 C356.520006,693.793329 358.253322,693.32 360.44,693.32 C361.000003,693.32 361.646663,693.386666 362.38,693.52 C363.113337,693.653334 363.839996,693.839999 364.56,694.08 C365.280004,694.320001 365.853331,694.599998 366.28,694.92 L365.48,696.68 C364.946664,696.413332 364.260004,696.120002 363.42,695.8 C362.579996,695.479998 361.560006,695.32 360.36,695.32 C358.999993,695.32 357.880004,695.619997 357,696.22 C356.119996,696.820003 355.68,697.586662 355.68,698.52 C355.706667,699.426671 356.213328,700.166664 357.2,700.74 C358.186672,701.313336 359.359993,701.826664 360.72,702.28 C361.786672,702.653335 362.813328,703.113331 363.8,703.66 C364.786672,704.206669 365.599997,704.85333 366.24,705.6 C366.880003,706.34667 367.2,707.239995 367.2,708.28 C367.2,709.986675 366.540007,711.326662 365.22,712.3 C363.899993,713.273338 362.000012,713.76 359.52,713.76 C358.986664,713.76 358.340004,713.700001 357.58,713.58 C356.819996,713.459999 356.073337,713.286668 355.34,713.06 C354.606663,712.833332 353.986669,712.560002 353.48,712.24 Z M372.72,713.24 L370.2,713.24 L370.2,693.84 L372.72,693.84 L372.72,713.24 Z M371.44,689.6 C370.879997,689.6 370.426668,689.420002 370.08,689.06 C369.733332,688.699998 369.56,688.253336 369.56,687.72 C369.56,687.186664 369.733332,686.740002 370.08,686.38 C370.426668,686.019998 370.879997,685.84 371.44,685.84 C371.946669,685.84 372.393331,686.019998 372.78,686.38 C373.166669,686.740002 373.36,687.186664 373.36,687.72 C373.36,688.253336 373.166669,688.699998 372.78,689.06 C372.393331,689.420002 371.946669,689.6 371.44,689.6 Z M378.96,713.24 L377.32,713.24 L377.32,685.4 L379.8,685 L379.8,710.56 L378.96,713.24 Z M379.32,698.2 L378.52,696.4 C379.053336,695.786664 379.65333,695.246669 380.32,694.78 C380.98667,694.313331 381.706663,693.953335 382.48,693.7 C383.253337,693.446665 384.053329,693.32 384.88,693.32 C386.80001,693.32 388.413327,693.753329 389.72,694.62 C391.026673,695.486671 392.019997,696.686659 392.7,698.22 C393.380003,699.753341 393.72,701.533323 393.72,703.56 C393.72,705.48001 393.36667,707.213326 392.66,708.76 C391.95333,710.306674 390.93334,711.526662 389.6,712.42 C388.26666,713.313338 386.64001,713.76 384.72,713.76 C383.839996,713.76 383.02667,713.606668 382.28,713.3 C381.53333,712.993332 380.84667,712.606669 380.22,712.14 C379.59333,711.673331 379.013336,711.200002 378.48,710.72 L379.28,709.12 C379.94667,709.733336 380.693329,710.313331 381.52,710.86 C382.346671,711.406669 383.453326,711.68 384.84,711.68 C386.280007,711.68 387.466662,711.320004 388.4,710.6 C389.333338,709.879996 390.033331,708.906673 390.5,707.68 C390.966669,706.453327 391.2,705.093341 391.2,703.6 C391.2,701.999992 390.980002,700.586673 390.54,699.36 C390.099998,698.133327 389.420005,697.16667 388.5,696.46 C387.579995,695.75333 386.386674,695.4 384.92,695.4 C383.639994,695.4 382.560004,695.666664 381.68,696.2 C380.799996,696.733336 380.013337,697.399996 379.32,698.2 Z M399.6,713.24 L397.12,713.24 L397.12,685.4 L399.6,685 L399.6,713.24 Z M419.92,703.68 L405.52,703.68 C405.546667,705.226674 405.793331,706.606661 406.26,707.82 C406.726669,709.033339 407.486661,709.99333 408.54,710.7 C409.593339,711.40667 410.986658,711.76 412.72,711.76 C413.840006,711.76 414.886662,711.606668 415.86,711.3 C416.833338,710.993332 417.813328,710.586669 418.8,710.08 L419.64,711.92 C419.026664,712.240002 418.38667,712.539999 417.72,712.82 C417.05333,713.100001 416.326671,713.326666 415.54,713.5 C414.753329,713.673334 413.853338,713.76 412.84,713.76 C410.599989,713.76 408.753341,713.320004 407.3,712.44 C405.846659,711.559996 404.76667,710.340008 404.06,708.78 C403.35333,707.219992 403,705.44001 403,703.44 C403.026667,701.493324 403.37333,699.760008 404.04,698.24 C404.70667,696.719992 405.693327,695.520004 407,694.64 C408.306673,693.759996 409.906657,693.32 411.8,693.32 C413.693343,693.32 415.233327,693.759996 416.42,694.64 C417.606673,695.520004 418.486664,696.726659 419.06,698.26 C419.633336,699.793341 419.92,701.533324 419.92,703.48 L419.92,703.68 Z M405.6,701.96 L417.4,701.96 C417.293333,700.679994 417.033335,699.546672 416.62,698.56 C416.206665,697.573328 415.600004,696.800003 414.8,696.24 C413.999996,695.679997 412.960006,695.4 411.68,695.4 C410.399994,695.4 409.333338,695.679997 408.48,696.24 C407.626662,696.800003 406.966669,697.573328 406.5,698.56 C406.033331,699.546672 405.733334,700.679994 405.6,701.96 Z M456.28,686.04 L448.28,713.24 L444.32,713.24 L438.48,692.44 L432.76,713.24 L428.84,713.24 L420.72,686.32 L425.2,685.68 L430.88,707.12 L436.32,686.04 L440.8,686.04 L446.36,707.12 L451.8,686.04 L456.28,686.04 Z M463.64,713.24 L459.2,713.24 L459.2,686.04 L467.32,686.04 C469.266676,686.04 471.039992,686.326664 472.64,686.9 C474.240008,687.473336 475.506662,688.393327 476.44,689.66 C477.373338,690.926673 477.84,692.586656 477.84,694.64 C477.84,696.160008 477.54667,697.479994 476.96,698.6 C476.37333,699.720006 475.566672,700.639996 474.54,701.36 C473.513328,702.080004 472.346673,702.613332 471.04,702.96 C469.733327,703.306668 468.37334,703.48 466.96,703.48 L463.64,703.48 L463.64,713.24 Z M467.2,689.8 L463.64,689.8 L463.64,699.76 L467.16,699.76 C468.306672,699.76 469.319996,699.593335 470.2,699.26 C471.080004,698.926665 471.773331,698.393337 472.28,697.66 C472.786669,696.926663 473.08,696.000006 473.16,694.88 C473.16,693.599994 472.913336,692.593337 472.42,691.86 C471.926664,691.126663 471.246671,690.600002 470.38,690.28 C469.513329,689.959998 468.45334,689.8 467.2,689.8 Z" id="AccessibleWP" fill="#298361"></path>
            <g id="Group" transform="translate(62.000000, 62.000000)">
                <g id="Combined-Shape">
                    <use fill="black" fill-opacity="1" filter="url(#filter-4)" xlink:href="#path-3"></use>
                    <use fill="#298361" fill-rule="evenodd" xlink:href="#path-3"></use>
                </g>
            </g>
        </g>
    </g>
</svg>