<?xml version="1.0" encoding="UTF-8"?>
<svg width="24" height="24" fill="#8c8f94" version="1.1" viewBox="0 0 700 700" xmlns="http://www.w3.org/2000/svg" xmlns:xlink="http://www.w3.org/1999/xlink">
 <g>
  <path d="m98 136.08h504v72.238h-504z"/>
  <path d="m98 244.16h504v72.238h-504z"/>
  <path d="m98 352.24h504v72.238h-504z"/>
  <path d="m421.68 99.68h-143.36l71.68-71.68z"/>
  <path d="m278.32 460.32h143.36l-71.68 71.68z"/>
  <use x="70" y="644" xlink:href="#w"/>
  <use x="90.550781" y="644" xlink:href="#b"/>
  <use x="104.359375" y="644" xlink:href="#a"/>
  <use x="123.347656" y="644" xlink:href="#f"/>
  <use x="142.242188" y="644" xlink:href="#e"/>
  <use x="155.628906" y="644" xlink:href="#a"/>
  <use x="174.617188" y="644" xlink:href="#l"/>
  <use x="204.410156" y="644" xlink:href="#k"/>
  <use x="224.453125" y="644" xlink:href="#j"/>
  <use x="252.453125" y="644" xlink:href="#i"/>
  <use x="262.867188" y="644" xlink:href="#c"/>
  <use x="282.105469" y="644" xlink:href="#h"/>
  <use x="302.039062" y="644" xlink:href="#f"/>
  <use x="320.933594" y="644" xlink:href="#d"/>
  <use x="340.867188" y="644" xlink:href="#d"/>
  <use x="360.800781" y="644" xlink:href="#a"/>
  <use x="379.789062" y="644" xlink:href="#g"/>
  <use x="406.203125" y="644" xlink:href="#v"/>
  <use x="429.640625" y="644" xlink:href="#u"/>
  <use x="439.234375" y="644" xlink:href="#b"/>
  <use x="453.046875" y="644" xlink:href="#g"/>
  <use x="469.710938" y="644" xlink:href="#a"/>
  <use x="488.703125" y="644" xlink:href="#t"/>
  <use x="507.320312" y="644" xlink:href="#c"/>
  <use x="526.558594" y="644" xlink:href="#b"/>
  <use x="540.367188" y="644" xlink:href="#d"/>
  <use x="70" y="672" xlink:href="#s"/>
  <use x="82.183594" y="672" xlink:href="#b"/>
  <use x="95.992188" y="672" xlink:href="#c"/>
  <use x="115.226562" y="672" xlink:href="#r"/>
  <use x="154.152344" y="672" xlink:href="#e"/>
  <use x="167.535156" y="672" xlink:href="#h"/>
  <use x="187.46875" y="672" xlink:href="#a"/>
  <use x="216.207031" y="672" xlink:href="#q"/>
  <use x="239.640625" y="672" xlink:href="#c"/>
  <use x="258.878906" y="672" xlink:href="#p"/>
  <use x="278.8125" y="672" xlink:href="#d"/>
  <use x="308.492188" y="672" xlink:href="#o"/>
  <use x="329.015625" y="672" xlink:href="#b"/>
  <use x="342.820312" y="672" xlink:href="#c"/>
  <use x="362.058594" y="672" xlink:href="#n"/>
  <use x="371.65625" y="672" xlink:href="#a"/>
  <use x="390.648438" y="672" xlink:href="#m"/>
  <use x="407.242188" y="672" xlink:href="#e"/>
 </g>
</svg>
